<mxfile host="Electron" agent="Mozilla/5.0 (X11; Linux x86_64) AppleWebKit/537.36 (KHTML, like Gecko) draw.io/24.7.17 Chrome/128.0.6613.186 Electron/32.2.5 Safari/537.36" version="24.7.17">
  <diagram name="Page-1" id="8378b5f6-a2b2-b727-a746-972ab9d02e00">
    <mxGraphModel dx="2236" dy="1138" grid="1" gridSize="10" guides="1" tooltips="1" connect="0" arrows="1" fold="1" page="1" pageScale="1.5" pageWidth="1169" pageHeight="827" background="none" math="0" shadow="0">
      <root>
        <mxCell id="0" />
        <mxCell id="1" parent="0" />
        <mxCell id="69" value="2" style="strokeColor=#DEEDFF;fillColor=default;" parent="1" vertex="1">
          <mxGeometry x="86.50000000000026" y="399.9999999999999" width="48" height="20" as="geometry" />
        </mxCell>
        <mxCell id="70" value="Engineering" style="align=left;strokeColor=#DEEDFF;fillColor=default;" parent="1" vertex="1">
          <mxGeometry x="136.50000000000026" y="399.9999999999999" width="583.5" height="20" as="geometry" />
        </mxCell>
        <mxCell id="71" value="35 days" style="strokeColor=#DEEDFF;fillColor=#FFFFFF;" parent="1" vertex="1">
          <mxGeometry x="1360" y="400" width="70" height="20" as="geometry" />
        </mxCell>
        <mxCell id="72" value="16.04.12" style="strokeColor=#DEEDFF;fillColor=#FFFFFF;" parent="1" vertex="1">
          <mxGeometry x="1432" y="399.99999999999983" width="79" height="20" as="geometry" />
        </mxCell>
        <mxCell id="73" value="1.06.12" style="strokeColor=#DEEDFF;fillColor=#FFFFFF;" parent="1" vertex="1">
          <mxGeometry x="1513" y="400.0000000000001" width="75" height="20" as="geometry" />
        </mxCell>
        <mxCell id="74" value="3" style="strokeColor=#DEEDFF" parent="1" vertex="1">
          <mxGeometry x="86.50000000000027" y="419.9999999999998" width="48" height="20" as="geometry" />
        </mxCell>
        <mxCell id="75" value="Project examination" style="align=left;strokeColor=#DEEDFF" parent="1" vertex="1">
          <mxGeometry x="136.50000000000028" y="419.9999999999998" width="583.5" height="20.000000000000014" as="geometry" />
        </mxCell>
        <mxCell id="76" value="1 day" style="strokeColor=#DEEDFF;fillColor=#FFFFFF;" parent="1" vertex="1">
          <mxGeometry x="1360" y="420" width="70" height="20" as="geometry" />
        </mxCell>
        <mxCell id="77" value="16.04.12" style="strokeColor=#DEEDFF;fillColor=#FFFFFF;" parent="1" vertex="1">
          <mxGeometry x="1432" y="419.9999999999997" width="79" height="20" as="geometry" />
        </mxCell>
        <mxCell id="78" value="16.04.12" style="strokeColor=#DEEDFF;fillColor=#FFFFFF;" parent="1" vertex="1">
          <mxGeometry x="1513" y="420" width="75" height="20" as="geometry" />
        </mxCell>
        <mxCell id="79" value="4" style="strokeColor=#DEEDFF" parent="1" vertex="1">
          <mxGeometry x="86.5" y="440.00000000000017" width="48" height="20" as="geometry" />
        </mxCell>
        <mxCell id="80" value="Material specification" style="align=left;strokeColor=#DEEDFF" parent="1" vertex="1">
          <mxGeometry x="136.5" y="440.00000000000017" width="583.5" height="20" as="geometry" />
        </mxCell>
        <mxCell id="81" value="2 days" style="strokeColor=#DEEDFF;fillColor=#FFFFFF;" parent="1" vertex="1">
          <mxGeometry x="1360" y="440.0000000000001" width="70" height="20" as="geometry" />
        </mxCell>
        <mxCell id="82" value="17.04.12" style="strokeColor=#DEEDFF;fillColor=#FFFFFF;" parent="1" vertex="1">
          <mxGeometry x="1432" y="440.0000000000001" width="79" height="20" as="geometry" />
        </mxCell>
        <mxCell id="83" value="18.04.12" style="strokeColor=#DEEDFF;fillColor=#FFFFFF;" parent="1" vertex="1">
          <mxGeometry x="1513" y="440.0000000000004" width="75" height="20" as="geometry" />
        </mxCell>
        <mxCell id="84" value="5" style="strokeColor=#DEEDFF" parent="1" vertex="1">
          <mxGeometry x="86.49999999999991" y="460.00000000000017" width="48" height="20" as="geometry" />
        </mxCell>
        <mxCell id="85" value="Material ordering" style="align=left;strokeColor=#DEEDFF" parent="1" vertex="1">
          <mxGeometry x="136.49999999999991" y="460.00000000000017" width="583.5" height="20" as="geometry" />
        </mxCell>
        <mxCell id="86" value="1 day" style="strokeColor=#DEEDFF;fillColor=#FFFFFF;" parent="1" vertex="1">
          <mxGeometry x="1360" y="460.0000000000001" width="70" height="20" as="geometry" />
        </mxCell>
        <mxCell id="87" value="19.04.12" style="strokeColor=#DEEDFF;fillColor=#FFFFFF;" parent="1" vertex="1">
          <mxGeometry x="1432" y="460.0000000000001" width="79" height="20" as="geometry" />
        </mxCell>
        <mxCell id="88" value="19.04.12" style="strokeColor=#DEEDFF;fillColor=#FFFFFF;" parent="1" vertex="1">
          <mxGeometry x="1513" y="460.0000000000004" width="75" height="20" as="geometry" />
        </mxCell>
        <mxCell id="89" value="6" style="strokeColor=#DEEDFF" parent="1" vertex="1">
          <mxGeometry x="86.4999999999999" y="480.00000000000045" width="48" height="20" as="geometry" />
        </mxCell>
        <mxCell id="90" value="Equipment layouting" style="align=left;strokeColor=#DEEDFF" parent="1" vertex="1">
          <mxGeometry x="136.4999999999999" y="480.00000000000045" width="583.5" height="20" as="geometry" />
        </mxCell>
        <mxCell id="91" value="3 days" style="strokeColor=#DEEDFF;fillColor=#FFFFFF;" parent="1" vertex="1">
          <mxGeometry x="1360" y="480.00000000000034" width="70" height="20" as="geometry" />
        </mxCell>
        <mxCell id="92" value="20.04.12" style="strokeColor=#DEEDFF;fillColor=#FFFFFF;" parent="1" vertex="1">
          <mxGeometry x="1432" y="480.00000000000034" width="79" height="20" as="geometry" />
        </mxCell>
        <mxCell id="93" value="24.04.12" style="strokeColor=#DEEDFF;fillColor=#FFFFFF;" parent="1" vertex="1">
          <mxGeometry x="1513" y="480.0000000000007" width="75" height="20" as="geometry" />
        </mxCell>
        <mxCell id="94" value="7" style="strokeColor=#DEEDFF" parent="1" vertex="1">
          <mxGeometry x="86.50000000000063" y="500.0000000000007" width="48" height="20" as="geometry" />
        </mxCell>
        <mxCell id="95" value="Supervision and meetings" style="align=left;strokeColor=#DEEDFF" parent="1" vertex="1">
          <mxGeometry x="136.50000000000063" y="500.0000000000007" width="583.5" height="20" as="geometry" />
        </mxCell>
        <mxCell id="96" value="27 days" style="strokeColor=#DEEDFF;fillColor=#FFFFFF;" parent="1" vertex="1">
          <mxGeometry x="1360" y="500.0000000000007" width="70" height="20" as="geometry" />
        </mxCell>
        <mxCell id="97" value="25.04.12" style="strokeColor=#DEEDFF;fillColor=#FFFFFF;" parent="1" vertex="1">
          <mxGeometry x="1432" y="500.0000000000007" width="79" height="20" as="geometry" />
        </mxCell>
        <mxCell id="98" value="31.05.12" style="strokeColor=#DEEDFF;fillColor=#FFFFFF;" parent="1" vertex="1">
          <mxGeometry x="1513" y="500.0000000000009" width="75" height="20" as="geometry" />
        </mxCell>
        <mxCell id="99" value="8" style="strokeColor=#DEEDFF" parent="1" vertex="1">
          <mxGeometry x="86.50000000000064" y="520.0000000000006" width="48" height="20" as="geometry" />
        </mxCell>
        <mxCell id="100" value="Bill of works" style="align=left;strokeColor=#DEEDFF" parent="1" vertex="1">
          <mxGeometry x="136.50000000000063" y="520.0000000000006" width="583.5" height="20" as="geometry" />
        </mxCell>
        <mxCell id="101" value="1 day" style="strokeColor=#DEEDFF;fillColor=#FFFFFF;" parent="1" vertex="1">
          <mxGeometry x="1360" y="520.0000000000006" width="70" height="20" as="geometry" />
        </mxCell>
        <mxCell id="102" value="1.06.12" style="strokeColor=#DEEDFF;fillColor=#FFFFFF;" parent="1" vertex="1">
          <mxGeometry x="1432" y="520.0000000000006" width="79" height="20" as="geometry" />
        </mxCell>
        <mxCell id="103" value="1.06.12" style="strokeColor=#DEEDFF;fillColor=#FFFFFF;" parent="1" vertex="1">
          <mxGeometry x="1513" y="520.0000000000008" width="75" height="20" as="geometry" />
        </mxCell>
        <mxCell id="104" value="9" style="strokeColor=#DEEDFF;fillColor=default;" parent="1" vertex="1">
          <mxGeometry x="86.50000000000037" y="540.000000000001" width="48" height="20" as="geometry" />
        </mxCell>
        <mxCell id="105" value="Workshop" style="align=left;strokeColor=#DEEDFF;fillColor=default;" parent="1" vertex="1">
          <mxGeometry x="136.50000000000037" y="540.000000000001" width="583.5" height="20.00000000000003" as="geometry" />
        </mxCell>
        <mxCell id="106" value="20 days" style="strokeColor=#DEEDFF;fillColor=#FFFFFF;" parent="1" vertex="1">
          <mxGeometry x="1360" y="540.0000000000009" width="70" height="20" as="geometry" />
        </mxCell>
        <mxCell id="107" value="24.04.12" style="strokeColor=#DEEDFF;fillColor=#FFFFFF;" parent="1" vertex="1">
          <mxGeometry x="1432" y="540.0000000000009" width="79" height="20" as="geometry" />
        </mxCell>
        <mxCell id="108" value="21.05.12" style="strokeColor=#DEEDFF;fillColor=#FFFFFF;" parent="1" vertex="1">
          <mxGeometry x="1513" y="540.0000000000013" width="75" height="20" as="geometry" />
        </mxCell>
        <mxCell id="109" value="10" style="strokeColor=#DEEDFF" parent="1" vertex="1">
          <mxGeometry x="86.50000000000028" y="560.000000000001" width="48" height="20" as="geometry" />
        </mxCell>
        <mxCell id="110" value="Project examination and material comparison" style="align=left;strokeColor=#DEEDFF" parent="1" vertex="1">
          <mxGeometry x="136.50000000000028" y="560.000000000001" width="583.5" height="20" as="geometry" />
        </mxCell>
        <mxCell id="111" value="2 days" style="strokeColor=#DEEDFF;fillColor=#FFFFFF;" parent="1" vertex="1">
          <mxGeometry x="1360" y="560.0000000000009" width="70" height="20" as="geometry" />
        </mxCell>
        <mxCell id="112" value="24.04.12" style="strokeColor=#DEEDFF;fillColor=#FFFFFF;" parent="1" vertex="1">
          <mxGeometry x="1432" y="560.0000000000009" width="79" height="20" as="geometry" />
        </mxCell>
        <mxCell id="113" value="25.04.12" style="strokeColor=#DEEDFF;fillColor=#FFFFFF;" parent="1" vertex="1">
          <mxGeometry x="1513" y="560.0000000000013" width="75" height="20" as="geometry" />
        </mxCell>
        <mxCell id="114" value="11" style="strokeColor=#DEEDFF" parent="1" vertex="1">
          <mxGeometry x="86.50000000000027" y="580.0000000000013" width="48" height="20" as="geometry" />
        </mxCell>
        <mxCell id="115" value="Preparing distribution boards" style="align=left;strokeColor=#DEEDFF" parent="1" vertex="1">
          <mxGeometry x="136.50000000000028" y="580.0000000000013" width="583.5" height="20" as="geometry" />
        </mxCell>
        <mxCell id="116" value="2 days" style="strokeColor=#DEEDFF;fillColor=#FFFFFF;" parent="1" vertex="1">
          <mxGeometry x="1360" y="580.0000000000011" width="70" height="20" as="geometry" />
        </mxCell>
        <mxCell id="117" value="26.04.12" style="strokeColor=#DEEDFF;fillColor=#FFFFFF;" parent="1" vertex="1">
          <mxGeometry x="1432" y="580.0000000000011" width="79" height="20" as="geometry" />
        </mxCell>
        <mxCell id="118" value="27.04.12" style="strokeColor=#DEEDFF;fillColor=#FFFFFF;" parent="1" vertex="1">
          <mxGeometry x="1513" y="580.0000000000015" width="75" height="20" as="geometry" />
        </mxCell>
        <mxCell id="119" value="12" style="strokeColor=#DEEDFF" parent="1" vertex="1">
          <mxGeometry x="86.49999999999997" y="600.0000000000016" width="48" height="20" as="geometry" />
        </mxCell>
        <mxCell id="120" value="Mounting equipment" style="align=left;strokeColor=#DEEDFF" parent="1" vertex="1">
          <mxGeometry x="136.49999999999997" y="600.0000000000016" width="583.5" height="20" as="geometry" />
        </mxCell>
        <mxCell id="121" value="3 days" style="strokeColor=#DEEDFF;fillColor=#FFFFFF;" parent="1" vertex="1">
          <mxGeometry x="1360" y="600.0000000000015" width="70" height="20" as="geometry" />
        </mxCell>
        <mxCell id="122" value="30.04.12" style="strokeColor=#DEEDFF;fillColor=#FFFFFF;" parent="1" vertex="1">
          <mxGeometry x="1432" y="600.0000000000015" width="79" height="20" as="geometry" />
        </mxCell>
        <mxCell id="123" value="2.05.12" style="strokeColor=#DEEDFF;fillColor=#FFFFFF;" parent="1" vertex="1">
          <mxGeometry x="1513" y="600.0000000000018" width="75" height="20" as="geometry" />
        </mxCell>
        <mxCell id="124" value="13" style="strokeColor=#DEEDFF" parent="1" vertex="1">
          <mxGeometry x="86.49999999999999" y="620.0000000000014" width="48" height="20" as="geometry" />
        </mxCell>
        <mxCell id="125" value="Wiring" style="align=left;strokeColor=#DEEDFF" parent="1" vertex="1">
          <mxGeometry x="136.5" y="620.0000000000014" width="583.5" height="20" as="geometry" />
        </mxCell>
        <mxCell id="126" value="10 days" style="strokeColor=#DEEDFF;fillColor=#FFFFFF;" parent="1" vertex="1">
          <mxGeometry x="1360" y="620.0000000000014" width="70" height="20" as="geometry" />
        </mxCell>
        <mxCell id="127" value="3.05.12" style="strokeColor=#DEEDFF;fillColor=#FFFFFF;" parent="1" vertex="1">
          <mxGeometry x="1432" y="620.0000000000014" width="79" height="20" as="geometry" />
        </mxCell>
        <mxCell id="128" value="16.05.12" style="strokeColor=#DEEDFF;fillColor=#FFFFFF;" parent="1" vertex="1">
          <mxGeometry x="1513" y="620.0000000000016" width="75" height="20" as="geometry" />
        </mxCell>
        <mxCell id="129" value="14" style="strokeColor=#DEEDFF" parent="1" vertex="1">
          <mxGeometry x="86.49999999999972" y="640.0000000000018" width="48" height="20" as="geometry" />
        </mxCell>
        <mxCell id="130" value="Testing" style="align=left;strokeColor=#DEEDFF" parent="1" vertex="1">
          <mxGeometry x="136.49999999999972" y="640.0000000000018" width="583.5" height="20" as="geometry" />
        </mxCell>
        <mxCell id="131" value="2 days" style="strokeColor=#DEEDFF;fillColor=#FFFFFF;" parent="1" vertex="1">
          <mxGeometry x="1360" y="640.0000000000018" width="70" height="20" as="geometry" />
        </mxCell>
        <mxCell id="132" value="17.05.12" style="strokeColor=#DEEDFF;fillColor=#FFFFFF;" parent="1" vertex="1">
          <mxGeometry x="1432" y="640.0000000000018" width="79" height="20" as="geometry" />
        </mxCell>
        <mxCell id="133" value="18.05.12" style="strokeColor=#DEEDFF;fillColor=#FFFFFF;" parent="1" vertex="1">
          <mxGeometry x="1513" y="640.000000000002" width="75" height="20" as="geometry" />
        </mxCell>
        <mxCell id="134" value="15" style="strokeColor=#DEEDFF;fillColor=#FFFFFF" parent="1" vertex="1">
          <mxGeometry x="86.49999999999963" y="660.0000000000018" width="48" height="20" as="geometry" />
        </mxCell>
        <mxCell id="135" value="Packaging" style="align=left;strokeColor=#DEEDFF;fillColor=#FFFFFF" parent="1" vertex="1">
          <mxGeometry x="136.49999999999963" y="660.0000000000018" width="583.5" height="20" as="geometry" />
        </mxCell>
        <mxCell id="136" value="1 day" style="strokeColor=#DEEDFF;fillColor=#FFFFFF;" parent="1" vertex="1">
          <mxGeometry x="1360" y="660.0000000000018" width="70" height="20" as="geometry" />
        </mxCell>
        <mxCell id="137" value="21.05.12" style="strokeColor=#DEEDFF;fillColor=#FFFFFF;" parent="1" vertex="1">
          <mxGeometry x="1432" y="660.0000000000018" width="79" height="20" as="geometry" />
        </mxCell>
        <mxCell id="138" value="21.05.12" style="strokeColor=#DEEDFF;fillColor=#FFFFFF;" parent="1" vertex="1">
          <mxGeometry x="1513" y="660.000000000002" width="75" height="20" as="geometry" />
        </mxCell>
        <mxCell id="139" value="16" style="strokeColor=#DEEDFF;fillColor=default;" parent="1" vertex="1">
          <mxGeometry x="86.49999999999962" y="680.000000000002" width="48" height="20" as="geometry" />
        </mxCell>
        <mxCell id="140" value="Field" style="align=left;strokeColor=#DEEDFF;fillColor=default;" parent="1" vertex="1">
          <mxGeometry x="136.4999999999996" y="680.000000000002" width="583.5" height="20" as="geometry" />
        </mxCell>
        <mxCell id="141" value="31 days" style="strokeColor=#DEEDFF;fillColor=#FFFFFF;" parent="1" vertex="1">
          <mxGeometry x="1360" y="680.000000000002" width="70" height="20" as="geometry" />
        </mxCell>
        <mxCell id="142" value="19.04.12" style="strokeColor=#DEEDFF;fillColor=#FFFFFF;" parent="1" vertex="1">
          <mxGeometry x="1432" y="680.000000000002" width="79" height="20" as="geometry" />
        </mxCell>
        <mxCell id="143" value="31.05.12" style="strokeColor=#DEEDFF;fillColor=#FFFFFF;" parent="1" vertex="1">
          <mxGeometry x="1513" y="680.0000000000023" width="75" height="20" as="geometry" />
        </mxCell>
        <mxCell id="144" value="17" style="strokeColor=#DEEDFF" parent="1" vertex="1">
          <mxGeometry x="86.500000000001" y="700.0000000000023" width="48" height="20" as="geometry" />
        </mxCell>
        <mxCell id="145" value="Field preparations and digging" style="align=left;strokeColor=#DEEDFF" parent="1" vertex="1">
          <mxGeometry x="136.500000000001" y="700.0000000000023" width="583.5" height="20" as="geometry" />
        </mxCell>
        <mxCell id="146" value="7 days" style="strokeColor=#DEEDFF;fillColor=#FFFFFF;" parent="1" vertex="1">
          <mxGeometry x="1360" y="700.0000000000023" width="70" height="20" as="geometry" />
        </mxCell>
        <mxCell id="147" value="19.04.12" style="strokeColor=#DEEDFF;fillColor=#FFFFFF;" parent="1" vertex="1">
          <mxGeometry x="1432" y="700.0000000000023" width="79" height="20" as="geometry" />
        </mxCell>
        <mxCell id="148" value="27.04.12" style="strokeColor=#DEEDFF;fillColor=#FFFFFF;" parent="1" vertex="1">
          <mxGeometry x="1513" y="700.0000000000025" width="75" height="20" as="geometry" />
        </mxCell>
        <mxCell id="149" value="18" style="strokeColor=#DEEDFF" parent="1" vertex="1">
          <mxGeometry x="86.50000000000102" y="720.0000000000022" width="48" height="20" as="geometry" />
        </mxCell>
        <mxCell id="150" value="Cable laying" style="align=left;strokeColor=#DEEDFF" parent="1" vertex="1">
          <mxGeometry x="136.50000000000102" y="720.0000000000022" width="583.5" height="20" as="geometry" />
        </mxCell>
        <mxCell id="151" value="4 days" style="strokeColor=#DEEDFF;fillColor=#FFFFFF;" parent="1" vertex="1">
          <mxGeometry x="1360" y="720.000000000002" width="70" height="20" as="geometry" />
        </mxCell>
        <mxCell id="152" value="30.04.12" style="strokeColor=#DEEDFF;fillColor=#FFFFFF;" parent="1" vertex="1">
          <mxGeometry x="1432" y="720.000000000002" width="79" height="20" as="geometry" />
        </mxCell>
        <mxCell id="153" value="3.05.12" style="strokeColor=#DEEDFF;fillColor=#FFFFFF;" parent="1" vertex="1">
          <mxGeometry x="1513" y="720.0000000000024" width="75" height="20" as="geometry" />
        </mxCell>
        <mxCell id="154" value="19" style="strokeColor=#DEEDFF" parent="1" vertex="1">
          <mxGeometry x="86.50000000000074" y="740.0000000000025" width="48" height="20" as="geometry" />
        </mxCell>
        <mxCell id="155" value="Installation laying" style="align=left;strokeColor=#DEEDFF" parent="1" vertex="1">
          <mxGeometry x="136.50000000000074" y="740.0000000000025" width="583.5" height="20" as="geometry" />
        </mxCell>
        <mxCell id="156" value="13 days" style="strokeColor=#DEEDFF;fillColor=#FFFFFF;" parent="1" vertex="1">
          <mxGeometry x="1360" y="740.0000000000025" width="70" height="20" as="geometry" />
        </mxCell>
        <mxCell id="157" value="4.05.12" style="strokeColor=#DEEDFF;fillColor=#FFFFFF;" parent="1" vertex="1">
          <mxGeometry x="1432" y="740.0000000000025" width="79" height="20" as="geometry" />
        </mxCell>
        <mxCell id="158" value="22.05.12" style="strokeColor=#DEEDFF;fillColor=#FFFFFF;" parent="1" vertex="1">
          <mxGeometry x="1513" y="740.0000000000027" width="75" height="20" as="geometry" />
        </mxCell>
        <mxCell id="159" value="20" style="strokeColor=#DEEDFF" parent="1" vertex="1">
          <mxGeometry x="86.50000000000065" y="760.0000000000025" width="48" height="20" as="geometry" />
        </mxCell>
        <mxCell id="160" value="Mount distribution boards" style="align=left;strokeColor=#DEEDFF" parent="1" vertex="1">
          <mxGeometry x="136.50000000000065" y="760.0000000000025" width="583.5" height="20" as="geometry" />
        </mxCell>
        <mxCell id="161" value="1 day" style="strokeColor=#DEEDFF;fillColor=#FFFFFF;" parent="1" vertex="1">
          <mxGeometry x="1360" y="760.0000000000025" width="70" height="20" as="geometry" />
        </mxCell>
        <mxCell id="162" value="23.05.12" style="strokeColor=#DEEDFF;fillColor=#FFFFFF;" parent="1" vertex="1">
          <mxGeometry x="1432" y="760.0000000000025" width="79" height="20" as="geometry" />
        </mxCell>
        <mxCell id="163" value="23.05.12" style="strokeColor=#DEEDFF;fillColor=#FFFFFF;" parent="1" vertex="1">
          <mxGeometry x="1513" y="760.0000000000027" width="75" height="20" as="geometry" />
        </mxCell>
        <mxCell id="164" value="21" style="strokeColor=#DEEDFF" parent="1" vertex="1">
          <mxGeometry x="86.50000000000065" y="780.0000000000028" width="48" height="20" as="geometry" />
        </mxCell>
        <mxCell id="165" value="Wiring distribution boards" style="align=left;strokeColor=#DEEDFF" parent="1" vertex="1">
          <mxGeometry x="136.50000000000065" y="780.0000000000028" width="583.5" height="20" as="geometry" />
        </mxCell>
        <mxCell id="166" value="4 days" style="strokeColor=#DEEDFF;fillColor=#FFFFFF;" parent="1" vertex="1">
          <mxGeometry x="1360" y="780.0000000000027" width="70" height="20" as="geometry" />
        </mxCell>
        <mxCell id="167" value="24.05.12" style="strokeColor=#DEEDFF;fillColor=#FFFFFF;" parent="1" vertex="1">
          <mxGeometry x="1432" y="780.0000000000027" width="79" height="20" as="geometry" />
        </mxCell>
        <mxCell id="168" value="29.05.12" style="strokeColor=#DEEDFF;fillColor=#FFFFFF;" parent="1" vertex="1">
          <mxGeometry x="1513" y="780.0000000000031" width="75" height="20" as="geometry" />
        </mxCell>
        <mxCell id="169" value="22" style="strokeColor=#DEEDFF" parent="1" vertex="1">
          <mxGeometry x="86.50000000000136" y="800.0000000000031" width="48" height="20" as="geometry" />
        </mxCell>
        <mxCell id="170" value="Testing" style="align=left;strokeColor=#DEEDFF" parent="1" vertex="1">
          <mxGeometry x="136.50000000000136" y="800.0000000000031" width="583.5" height="20" as="geometry" />
        </mxCell>
        <mxCell id="171" value="2 days" style="strokeColor=#DEEDFF;fillColor=#FFFFFF;" parent="1" vertex="1">
          <mxGeometry x="1360" y="800.000000000003" width="70" height="20" as="geometry" />
        </mxCell>
        <mxCell id="172" value="30.05.12" style="strokeColor=#DEEDFF;fillColor=#FFFFFF;" parent="1" vertex="1">
          <mxGeometry x="1432" y="800.000000000003" width="79" height="20" as="geometry" />
        </mxCell>
        <mxCell id="173" value="31.05.12" style="strokeColor=#DEEDFF;fillColor=#FFFFFF;" parent="1" vertex="1">
          <mxGeometry x="1513" y="800.0000000000033" width="75" height="20" as="geometry" />
        </mxCell>
        <mxCell id="174" value="23" style="strokeColor=#DEEDFF" parent="1" vertex="1">
          <mxGeometry x="86.50000000000139" y="820.000000000003" width="48" height="20" as="geometry" />
        </mxCell>
        <mxCell id="175" value="" style="align=left;strokeColor=#DEEDFF" parent="1" vertex="1">
          <mxGeometry x="136.5000000000014" y="820.000000000003" width="583.5" height="20" as="geometry" />
        </mxCell>
        <mxCell id="176" value="" style="strokeColor=#DEEDFF;fillColor=#FFFFFF;" parent="1" vertex="1">
          <mxGeometry x="1360" y="820.000000000003" width="70" height="20" as="geometry" />
        </mxCell>
        <mxCell id="177" value="" style="strokeColor=#DEEDFF;fillColor=#FFFFFF;" parent="1" vertex="1">
          <mxGeometry x="1432" y="820.000000000003" width="79" height="20" as="geometry" />
        </mxCell>
        <mxCell id="178" value="" style="strokeColor=#DEEDFF;fillColor=#FFFFFF;" parent="1" vertex="1">
          <mxGeometry x="1513" y="820.0000000000032" width="75" height="20" as="geometry" />
        </mxCell>
        <mxCell id="179" value="24" style="strokeColor=#DEEDFF" parent="1" vertex="1">
          <mxGeometry x="86.50000000000111" y="840.0000000000034" width="48" height="20" as="geometry" />
        </mxCell>
        <mxCell id="180" value="" style="align=left;strokeColor=#DEEDFF" parent="1" vertex="1">
          <mxGeometry x="136.5000000000011" y="840.0000000000034" width="583.5" height="20" as="geometry" />
        </mxCell>
        <mxCell id="181" value="" style="strokeColor=#DEEDFF;fillColor=#FFFFFF;" parent="1" vertex="1">
          <mxGeometry x="1360" y="840.0000000000033" width="70" height="20" as="geometry" />
        </mxCell>
        <mxCell id="182" value="" style="strokeColor=#DEEDFF;fillColor=#FFFFFF;" parent="1" vertex="1">
          <mxGeometry x="1432" y="840.0000000000033" width="79" height="20" as="geometry" />
        </mxCell>
        <mxCell id="183" value="" style="strokeColor=#DEEDFF;fillColor=#FFFFFF;" parent="1" vertex="1">
          <mxGeometry x="1513" y="840.0000000000036" width="75" height="20" as="geometry" />
        </mxCell>
        <mxCell id="184" value="25" style="strokeColor=#DEEDFF" parent="1" vertex="1">
          <mxGeometry x="86.50000000000102" y="860.0000000000034" width="48" height="20" as="geometry" />
        </mxCell>
        <mxCell id="185" value="" style="align=left;strokeColor=#DEEDFF" parent="1" vertex="1">
          <mxGeometry x="136.50000000000102" y="860.0000000000034" width="583.5" height="20" as="geometry" />
        </mxCell>
        <mxCell id="186" value="" style="strokeColor=#DEEDFF;fillColor=#FFFFFF;" parent="1" vertex="1">
          <mxGeometry x="1360" y="860.0000000000033" width="70" height="20" as="geometry" />
        </mxCell>
        <mxCell id="187" value="" style="strokeColor=#DEEDFF;fillColor=#FFFFFF;" parent="1" vertex="1">
          <mxGeometry x="1432" y="860.0000000000033" width="79" height="20" as="geometry" />
        </mxCell>
        <mxCell id="188" value="" style="strokeColor=#DEEDFF;fillColor=#FFFFFF;" parent="1" vertex="1">
          <mxGeometry x="1513" y="860.0000000000036" width="75" height="20" as="geometry" />
        </mxCell>
        <mxCell id="189" value="26" style="strokeColor=#DEEDFF" parent="1" vertex="1">
          <mxGeometry x="86.50000000000102" y="880.0000000000036" width="48" height="20" as="geometry" />
        </mxCell>
        <mxCell id="190" value="" style="align=left;strokeColor=#DEEDFF" parent="1" vertex="1">
          <mxGeometry x="136.500000000001" y="880.0000000000036" width="583.5" height="20" as="geometry" />
        </mxCell>
        <mxCell id="191" value="" style="strokeColor=#DEEDFF;fillColor=#FFFFFF;" parent="1" vertex="1">
          <mxGeometry x="1360" y="880.0000000000035" width="70" height="20" as="geometry" />
        </mxCell>
        <mxCell id="192" value="" style="strokeColor=#DEEDFF;fillColor=#FFFFFF;" parent="1" vertex="1">
          <mxGeometry x="1432" y="880.0000000000035" width="79" height="20" as="geometry" />
        </mxCell>
        <mxCell id="193" value="" style="strokeColor=#DEEDFF;fillColor=#FFFFFF;" parent="1" vertex="1">
          <mxGeometry x="1513" y="880.0000000000039" width="75" height="20" as="geometry" />
        </mxCell>
        <mxCell id="2" value="Task Name" style="fillColor=#23445D;strokeColor=#FFFFFF;strokeWidth=2;fontColor=#FFFFFF;fontStyle=1" parent="1" vertex="1">
          <mxGeometry x="135.5" y="340" width="584.5" height="40" as="geometry" />
        </mxCell>
        <mxCell id="3" value="PR #" style="fillColor=#23445D;strokeColor=#FFFFFF;strokeWidth=2;fontColor=#FFFFFF;fontStyle=1;labelBorderColor=none;labelBackgroundColor=none;fillStyle=auto;" parent="1" vertex="1">
          <mxGeometry x="85.5" y="340" width="50" height="40" as="geometry" />
        </mxCell>
        <mxCell id="header-contributors" value="Participants" style="fillColor=#23445D;strokeColor=#FFFFFF;strokeWidth=2;fontColor=#FFFFFF;fontStyle=1" parent="1" vertex="1">
          <mxGeometry x="721" y="340" width="638" height="39.37" as="geometry" />
        </mxCell>
        <mxCell id="12" value="Duration" style="fillColor=#23445D;strokeColor=#FFFFFF;strokeWidth=2;fontColor=#FFFFFF;fontStyle=1" parent="1" vertex="1">
          <mxGeometry x="1359" y="340" width="71" height="40" as="geometry" />
        </mxCell>
        <mxCell id="13" value="Created At" style="fillColor=#23445D;strokeColor=#FFFFFF;strokeWidth=2;fontColor=#FFFFFF;fontStyle=1" parent="1" vertex="1">
          <mxGeometry x="1431" y="340" width="80" height="40" as="geometry" />
        </mxCell>
        <mxCell id="14" value="Merged At" style="fillColor=#23445D;strokeColor=#FFFFFF;strokeWidth=2;fontColor=#FFFFFF;fontStyle=1" parent="1" vertex="1">
          <mxGeometry x="1512" y="340" width="76" height="40" as="geometry" />
        </mxCell>
        <mxCell id="55" value="Task Details" style="fillColor=#23445D;strokeColor=#FFFFFF;strokeWidth=2;fontColor=#FFFFFF;fontStyle=1" parent="1" vertex="1">
          <mxGeometry x="1589" y="340" width="980" height="40" as="geometry" />
        </mxCell>
        <mxCell id="uhYjJ-4pjnB6K-IcsNWL-279" value="Complete project execution" style="align=left;strokeColor=#DEEDFF;fillColor=default;" vertex="1" parent="1">
          <mxGeometry x="722" y="380" width="636" height="20" as="geometry" />
        </mxCell>
        <mxCell id="uhYjJ-4pjnB6K-IcsNWL-280" value="Engineering" style="align=left;strokeColor=#DEEDFF;fillColor=default;" vertex="1" parent="1">
          <mxGeometry x="722" y="400" width="636" height="20" as="geometry" />
        </mxCell>
        <mxCell id="uhYjJ-4pjnB6K-IcsNWL-281" value="Project examination" style="align=left;strokeColor=#DEEDFF" vertex="1" parent="1">
          <mxGeometry x="722" y="420" width="636" height="20" as="geometry" />
        </mxCell>
        <mxCell id="uhYjJ-4pjnB6K-IcsNWL-282" value="Material specification" style="align=left;strokeColor=#DEEDFF" vertex="1" parent="1">
          <mxGeometry x="722" y="440.00000000000017" width="636" height="20" as="geometry" />
        </mxCell>
        <mxCell id="uhYjJ-4pjnB6K-IcsNWL-283" value="Material ordering" style="align=left;strokeColor=#DEEDFF" vertex="1" parent="1">
          <mxGeometry x="721.9999999999999" y="460.0000000000002" width="636" height="20" as="geometry" />
        </mxCell>
        <mxCell id="uhYjJ-4pjnB6K-IcsNWL-284" value="Equipment layouting" style="align=left;strokeColor=#DEEDFF" vertex="1" parent="1">
          <mxGeometry x="721.9999999999999" y="480.00000000000045" width="636" height="20" as="geometry" />
        </mxCell>
        <mxCell id="uhYjJ-4pjnB6K-IcsNWL-285" value="Supervision and meetings" style="align=left;strokeColor=#DEEDFF" vertex="1" parent="1">
          <mxGeometry x="722.0000000000007" y="500.0000000000007" width="636" height="20" as="geometry" />
        </mxCell>
        <mxCell id="uhYjJ-4pjnB6K-IcsNWL-286" value="Bill of works" style="align=left;strokeColor=#DEEDFF" vertex="1" parent="1">
          <mxGeometry x="722.0000000000007" y="520.0000000000006" width="636" height="20" as="geometry" />
        </mxCell>
        <mxCell id="uhYjJ-4pjnB6K-IcsNWL-287" value="Workshop" style="align=left;strokeColor=#DEEDFF;fillColor=default;" vertex="1" parent="1">
          <mxGeometry x="722.0000000000003" y="540.000000000001" width="636" height="20.00000000000003" as="geometry" />
        </mxCell>
        <mxCell id="uhYjJ-4pjnB6K-IcsNWL-288" value="Project examination and material comparison" style="align=left;strokeColor=#DEEDFF" vertex="1" parent="1">
          <mxGeometry x="722.0000000000002" y="560.000000000001" width="636" height="20" as="geometry" />
        </mxCell>
        <mxCell id="uhYjJ-4pjnB6K-IcsNWL-289" value="Preparing distribution boards" style="align=left;strokeColor=#DEEDFF" vertex="1" parent="1">
          <mxGeometry x="722.0000000000002" y="580.0000000000013" width="636" height="20" as="geometry" />
        </mxCell>
        <mxCell id="uhYjJ-4pjnB6K-IcsNWL-290" value="Mounting equipment" style="align=left;strokeColor=#DEEDFF" vertex="1" parent="1">
          <mxGeometry x="722" y="600.0000000000016" width="636" height="20" as="geometry" />
        </mxCell>
        <mxCell id="uhYjJ-4pjnB6K-IcsNWL-291" value="Wiring" style="align=left;strokeColor=#DEEDFF" vertex="1" parent="1">
          <mxGeometry x="722" y="620.0000000000014" width="636" height="20" as="geometry" />
        </mxCell>
        <mxCell id="uhYjJ-4pjnB6K-IcsNWL-292" value="Testing" style="align=left;strokeColor=#DEEDFF" vertex="1" parent="1">
          <mxGeometry x="721.9999999999998" y="640.0000000000018" width="636" height="20" as="geometry" />
        </mxCell>
        <mxCell id="uhYjJ-4pjnB6K-IcsNWL-293" value="Packaging" style="align=left;strokeColor=#DEEDFF;fillColor=#FFFFFF" vertex="1" parent="1">
          <mxGeometry x="721.9999999999997" y="660.0000000000018" width="636" height="20" as="geometry" />
        </mxCell>
        <mxCell id="uhYjJ-4pjnB6K-IcsNWL-294" value="Field" style="align=left;strokeColor=#DEEDFF;fillColor=default;" vertex="1" parent="1">
          <mxGeometry x="721.9999999999995" y="680.000000000002" width="636" height="20" as="geometry" />
        </mxCell>
        <mxCell id="uhYjJ-4pjnB6K-IcsNWL-295" value="Field preparations and digging" style="align=left;strokeColor=#DEEDFF" vertex="1" parent="1">
          <mxGeometry x="722.000000000001" y="700.0000000000023" width="636" height="20" as="geometry" />
        </mxCell>
        <mxCell id="uhYjJ-4pjnB6K-IcsNWL-296" value="Cable laying" style="align=left;strokeColor=#DEEDFF" vertex="1" parent="1">
          <mxGeometry x="722.000000000001" y="720.0000000000022" width="636" height="20" as="geometry" />
        </mxCell>
        <mxCell id="uhYjJ-4pjnB6K-IcsNWL-297" value="Installation laying" style="align=left;strokeColor=#DEEDFF" vertex="1" parent="1">
          <mxGeometry x="722.0000000000007" y="740.0000000000025" width="636" height="20" as="geometry" />
        </mxCell>
        <mxCell id="uhYjJ-4pjnB6K-IcsNWL-298" value="Mount distribution boards" style="align=left;strokeColor=#DEEDFF" vertex="1" parent="1">
          <mxGeometry x="722.0000000000007" y="760.0000000000025" width="636" height="20" as="geometry" />
        </mxCell>
        <mxCell id="uhYjJ-4pjnB6K-IcsNWL-299" value="Wiring distribution boards" style="align=left;strokeColor=#DEEDFF" vertex="1" parent="1">
          <mxGeometry x="722.0000000000007" y="780.0000000000028" width="636" height="20" as="geometry" />
        </mxCell>
        <mxCell id="uhYjJ-4pjnB6K-IcsNWL-300" value="Testing" style="align=left;strokeColor=#DEEDFF" vertex="1" parent="1">
          <mxGeometry x="722.0000000000014" y="800.0000000000031" width="636" height="20" as="geometry" />
        </mxCell>
        <mxCell id="uhYjJ-4pjnB6K-IcsNWL-301" value="" style="align=left;strokeColor=#DEEDFF" vertex="1" parent="1">
          <mxGeometry x="722.0000000000014" y="820.000000000003" width="636" height="20" as="geometry" />
        </mxCell>
        <mxCell id="uhYjJ-4pjnB6K-IcsNWL-302" value="" style="align=left;strokeColor=#DEEDFF" vertex="1" parent="1">
          <mxGeometry x="722.0000000000011" y="840.0000000000034" width="636" height="20" as="geometry" />
        </mxCell>
        <mxCell id="uhYjJ-4pjnB6K-IcsNWL-303" value="" style="align=left;strokeColor=#DEEDFF" vertex="1" parent="1">
          <mxGeometry x="722.000000000001" y="860.0000000000034" width="636" height="20" as="geometry" />
        </mxCell>
        <mxCell id="uhYjJ-4pjnB6K-IcsNWL-304" value="" style="align=left;strokeColor=#DEEDFF" vertex="1" parent="1">
          <mxGeometry x="722.000000000001" y="880.0000000000036" width="636" height="20" as="geometry" />
        </mxCell>
        <mxCell id="uhYjJ-4pjnB6K-IcsNWL-305" value="Complete project execution" style="align=left;strokeColor=#DEEDFF;fillColor=#FFFFFF;" vertex="1" parent="1">
          <mxGeometry x="1591" y="380" width="979" height="20" as="geometry" />
        </mxCell>
        <mxCell id="uhYjJ-4pjnB6K-IcsNWL-306" value="Engineering" style="align=left;strokeColor=#DEEDFF;fillColor=#FFFFFF;" vertex="1" parent="1">
          <mxGeometry x="1591.0000000000002" y="399.9999999999999" width="979" height="20" as="geometry" />
        </mxCell>
        <mxCell id="uhYjJ-4pjnB6K-IcsNWL-307" value="Project examination" style="align=left;strokeColor=#DEEDFF;fillColor=#FFFFFF;" vertex="1" parent="1">
          <mxGeometry x="1591.0000000000002" y="419.9999999999998" width="979" height="20.000000000000014" as="geometry" />
        </mxCell>
        <mxCell id="uhYjJ-4pjnB6K-IcsNWL-308" value="Material specification" style="align=left;strokeColor=#DEEDFF;fillColor=#FFFFFF;" vertex="1" parent="1">
          <mxGeometry x="1591" y="440.00000000000017" width="979" height="20" as="geometry" />
        </mxCell>
        <mxCell id="uhYjJ-4pjnB6K-IcsNWL-309" value="Material ordering" style="align=left;strokeColor=#DEEDFF;fillColor=#FFFFFF;" vertex="1" parent="1">
          <mxGeometry x="1591" y="460.0000000000002" width="979" height="20" as="geometry" />
        </mxCell>
        <mxCell id="uhYjJ-4pjnB6K-IcsNWL-310" value="Equipment layouting" style="align=left;strokeColor=#DEEDFF;fillColor=#FFFFFF;" vertex="1" parent="1">
          <mxGeometry x="1591" y="480.00000000000045" width="979" height="20" as="geometry" />
        </mxCell>
        <mxCell id="uhYjJ-4pjnB6K-IcsNWL-311" value="Supervision and meetings" style="align=left;strokeColor=#DEEDFF;fillColor=#FFFFFF;" vertex="1" parent="1">
          <mxGeometry x="1591.0000000000007" y="500.0000000000007" width="979" height="20" as="geometry" />
        </mxCell>
        <mxCell id="uhYjJ-4pjnB6K-IcsNWL-312" value="Bill of works" style="align=left;strokeColor=#DEEDFF;fillColor=#FFFFFF;" vertex="1" parent="1">
          <mxGeometry x="1591.0000000000007" y="520.0000000000006" width="979" height="20" as="geometry" />
        </mxCell>
        <mxCell id="uhYjJ-4pjnB6K-IcsNWL-313" value="Workshop" style="align=left;strokeColor=#DEEDFF;fillColor=#FFFFFF;" vertex="1" parent="1">
          <mxGeometry x="1591.0000000000005" y="540.000000000001" width="979" height="20.00000000000003" as="geometry" />
        </mxCell>
        <mxCell id="uhYjJ-4pjnB6K-IcsNWL-314" value="Project examination and material comparison" style="align=left;strokeColor=#DEEDFF;fillColor=#FFFFFF;" vertex="1" parent="1">
          <mxGeometry x="1591.0000000000002" y="560.000000000001" width="979" height="20" as="geometry" />
        </mxCell>
        <mxCell id="uhYjJ-4pjnB6K-IcsNWL-315" value="Preparing distribution boards" style="align=left;strokeColor=#DEEDFF;fillColor=#FFFFFF;" vertex="1" parent="1">
          <mxGeometry x="1591.0000000000002" y="580.0000000000013" width="979" height="20" as="geometry" />
        </mxCell>
        <mxCell id="uhYjJ-4pjnB6K-IcsNWL-316" value="Mounting equipment" style="align=left;strokeColor=#DEEDFF;fillColor=#FFFFFF;" vertex="1" parent="1">
          <mxGeometry x="1591" y="600.0000000000016" width="979" height="20" as="geometry" />
        </mxCell>
        <mxCell id="uhYjJ-4pjnB6K-IcsNWL-317" value="Wiring" style="align=left;strokeColor=#DEEDFF;fillColor=#FFFFFF;" vertex="1" parent="1">
          <mxGeometry x="1591" y="620.0000000000014" width="979" height="20" as="geometry" />
        </mxCell>
        <mxCell id="uhYjJ-4pjnB6K-IcsNWL-318" value="Testing" style="align=left;strokeColor=#DEEDFF;fillColor=#FFFFFF;" vertex="1" parent="1">
          <mxGeometry x="1590.9999999999998" y="640.0000000000018" width="979" height="20" as="geometry" />
        </mxCell>
        <mxCell id="uhYjJ-4pjnB6K-IcsNWL-319" value="Packaging" style="align=left;strokeColor=#DEEDFF;fillColor=#FFFFFF;" vertex="1" parent="1">
          <mxGeometry x="1590.9999999999995" y="660.0000000000018" width="979" height="20" as="geometry" />
        </mxCell>
        <mxCell id="uhYjJ-4pjnB6K-IcsNWL-320" value="Field" style="align=left;strokeColor=#DEEDFF;fillColor=#FFFFFF;" vertex="1" parent="1">
          <mxGeometry x="1590.9999999999995" y="680.000000000002" width="979" height="20" as="geometry" />
        </mxCell>
        <mxCell id="uhYjJ-4pjnB6K-IcsNWL-321" value="Field preparations and digging" style="align=left;strokeColor=#DEEDFF;fillColor=#FFFFFF;" vertex="1" parent="1">
          <mxGeometry x="1591.000000000001" y="700.0000000000023" width="979" height="20" as="geometry" />
        </mxCell>
        <mxCell id="uhYjJ-4pjnB6K-IcsNWL-322" value="Cable laying" style="align=left;strokeColor=#DEEDFF;fillColor=#FFFFFF;" vertex="1" parent="1">
          <mxGeometry x="1591.000000000001" y="720.0000000000022" width="979" height="20" as="geometry" />
        </mxCell>
        <mxCell id="uhYjJ-4pjnB6K-IcsNWL-323" value="Installation laying" style="align=left;strokeColor=#DEEDFF;fillColor=#FFFFFF;" vertex="1" parent="1">
          <mxGeometry x="1591.0000000000007" y="740.0000000000025" width="979" height="20" as="geometry" />
        </mxCell>
        <mxCell id="uhYjJ-4pjnB6K-IcsNWL-324" value="Mount distribution boards" style="align=left;strokeColor=#DEEDFF;fillColor=#FFFFFF;" vertex="1" parent="1">
          <mxGeometry x="1591.0000000000007" y="760.0000000000025" width="979" height="20" as="geometry" />
        </mxCell>
        <mxCell id="uhYjJ-4pjnB6K-IcsNWL-325" value="Wiring distribution boards" style="align=left;strokeColor=#DEEDFF;fillColor=#FFFFFF;" vertex="1" parent="1">
          <mxGeometry x="1591.0000000000007" y="780.0000000000028" width="979" height="20" as="geometry" />
        </mxCell>
        <mxCell id="uhYjJ-4pjnB6K-IcsNWL-326" value="Testing" style="align=left;strokeColor=#DEEDFF;fillColor=#FFFFFF;" vertex="1" parent="1">
          <mxGeometry x="1591.0000000000014" y="800.0000000000031" width="979" height="20" as="geometry" />
        </mxCell>
        <mxCell id="uhYjJ-4pjnB6K-IcsNWL-327" value="" style="align=left;strokeColor=#DEEDFF;fillColor=#FFFFFF;" vertex="1" parent="1">
          <mxGeometry x="1591.0000000000014" y="820.000000000003" width="979" height="20" as="geometry" />
        </mxCell>
        <mxCell id="uhYjJ-4pjnB6K-IcsNWL-328" value="" style="align=left;strokeColor=#DEEDFF;fillColor=#FFFFFF;" vertex="1" parent="1">
          <mxGeometry x="1591.0000000000011" y="840.0000000000034" width="979" height="20" as="geometry" />
        </mxCell>
        <mxCell id="uhYjJ-4pjnB6K-IcsNWL-329" value="" style="align=left;strokeColor=#DEEDFF;fillColor=#FFFFFF;" vertex="1" parent="1">
          <mxGeometry x="1591.000000000001" y="860.0000000000034" width="979" height="20" as="geometry" />
        </mxCell>
        <mxCell id="uhYjJ-4pjnB6K-IcsNWL-330" value="" style="align=left;strokeColor=#DEEDFF;fillColor=#FFFFFF;" vertex="1" parent="1">
          <mxGeometry x="1591.000000000001" y="880.0000000000036" width="979" height="20" as="geometry" />
        </mxCell>
        <mxCell id="uhYjJ-4pjnB6K-IcsNWL-332" value="Complete project execution" style="align=left;strokeColor=#DEEDFF;fillColor=default;" vertex="1" parent="1">
          <mxGeometry x="136.5" y="380" width="583.5" height="20" as="geometry" />
        </mxCell>
        <mxCell id="uhYjJ-4pjnB6K-IcsNWL-334" value="2" style="strokeColor=#DEEDFF;fillColor=default;" vertex="1" parent="1">
          <mxGeometry x="86.50000000000026" y="379.9999999999999" width="48" height="20" as="geometry" />
        </mxCell>
        <mxCell id="uhYjJ-4pjnB6K-IcsNWL-335" value="1 day" style="strokeColor=#DEEDFF" vertex="1" parent="1">
          <mxGeometry x="1360" y="380" width="70" height="20" as="geometry" />
        </mxCell>
        <mxCell id="uhYjJ-4pjnB6K-IcsNWL-339" value="16.04.12" style="strokeColor=#DEEDFF;fillColor=#FFFFFF;" vertex="1" parent="1">
          <mxGeometry x="1432" y="379.99999999999983" width="79" height="20" as="geometry" />
        </mxCell>
        <mxCell id="uhYjJ-4pjnB6K-IcsNWL-340" value="1.06.12" style="strokeColor=#DEEDFF;fillColor=#FFFFFF;" vertex="1" parent="1">
          <mxGeometry x="1513" y="380.0000000000001" width="75" height="20" as="geometry" />
        </mxCell>
      </root>
    </mxGraphModel>
  </diagram>
</mxfile>
